<svg xmlns="http://www.w3.org/2000/svg" xmlns:xlink="http://www.w3.org/1999/xlink" xmlns:lucid="lucid" width="824.5" height="1532.76"><g transform="translate(-160 -220)" lucid:page-tab-id="0_0"><path d="M180 1320.76a8 8 0 0 1 8-8h764a8 8 0 0 1 8 8v404a8 8 0 0 1-8 8H188a8 8 0 0 1-8-8z" stroke="#333" fill="#fff"/><path d="M950 1322.76h-15v20h15z" stroke="#333" fill="#fff"/><path d="M940 1326.1h-10v3.33h10zm0 10h-10v3.33h10z" stroke="#333" fill="#fff"/><path d="M450 1320.76a8 8 0 0 1 8-8h224a8 8 0 0 1 8 8v44a8 8 0 0 1-8 8H458a8 8 0 0 1-8-8z" stroke="#000" stroke-opacity="0" fill="#fff" fill-opacity="0"/><use xlink:href="#a" transform="matrix(1,0,0,1,455,1317.7633617759734) translate(11.325000000000003 30.025)"/><use xlink:href="#b" transform="matrix(1,0,0,1,455,1317.7633617759734) translate(74.225 30.025)"/><use xlink:href="#c" transform="matrix(1,0,0,1,455,1317.7633617759734) translate(116.77499999999999 30.025)"/><path d="M259 1560.04a5 5 0 0 1 5-5h170a5 5 0 0 1 5 5v110a5 5 0 0 1-5 5H264a5 5 0 0 1-5-5z" stroke="#666" fill="#cfe4ff"/><path d="M429 1565.04h-15v20h15z" stroke="#666" fill="#cfe4ff"/><path d="M419 1568.38h-10v3.33h10zm0 10h-10v3.33h10z" stroke="#666" fill="#cfe4ff"/><use xlink:href="#d" transform="matrix(1,0,0,1,259.0000000000001,1555.0427809022865) translate(16.5729012345679 62.97222222222222)"/><use xlink:href="#e" transform="matrix(1,0,0,1,259.0000000000001,1555.0427809022865) translate(87.53586419753087 62.97222222222222)"/><path d="M484.5 1560.04a5 5 0 0 1 5-5h170a5 5 0 0 1 5 5v110a5 5 0 0 1-5 5h-170a5 5 0 0 1-5-5z" stroke="#666" fill="#cfe4ff"/><path d="M654.5 1565.04h-15v20h15z" stroke="#666" fill="#cfe4ff"/><path d="M644.5 1568.38h-10v3.33h10zm0 10h-10v3.33h10z" stroke="#666" fill="#cfe4ff"/><use xlink:href="#f" transform="matrix(1,0,0,1,484.5,1555.0427809022865) translate(49.60993827160493 62.97222222222222)"/><use xlink:href="#g" transform="matrix(1,0,0,1,484.5,1555.0427809022865) translate(91.98030864197531 62.97222222222222)"/><path d="M710 1560.04a5 5 0 0 1 5-5h170a5 5 0 0 1 5 5v110a5 5 0 0 1-5 5H715a5 5 0 0 1-5-5z" stroke="#666" fill="#cfe4ff"/><path d="M880 1565.04h-15v20h15z" stroke="#666" fill="#cfe4ff"/><path d="M870 1568.38h-10v3.33h10zm0 10h-10v3.33h10z" stroke="#666" fill="#cfe4ff"/><use xlink:href="#h" transform="matrix(1,0,0,1,710,1555.0427809022865) translate(29.881543209876533 51.72222222222222)"/><use xlink:href="#i" transform="matrix(1,0,0,1,710,1555.0427809022865) translate(52.548209876543204 51.72222222222222)"/><use xlink:href="#j" transform="matrix(1,0,0,1,710,1555.0427809022865) translate(95.90623456790124 51.72222222222222)"/><use xlink:href="#k" transform="matrix(1,0,0,1,710,1555.0427809022865) translate(67.36302469135802 73.05555555555556)"/><path d="M259 1430.04a5 5 0 0 1 5-5h621a5 5 0 0 1 5 5v110a5 5 0 0 1-5 5H264a5 5 0 0 1-5-5z" stroke="#666" fill="#cfe4ff"/><path d="M880 1435.04h-15v20h15z" stroke="#666" fill="#cfe4ff"/><path d="M870 1438.38h-10v3.33h10zm0 10h-10v3.33h10z" stroke="#666" fill="#cfe4ff"/><use xlink:href="#l" transform="matrix(1,0,0,1,259.0000000000003,1425.0427809025196) translate(20.880000000000003 51.9)"/><use xlink:href="#m" transform="matrix(1,0,0,1,259.0000000000003,1425.0427809025196) translate(113.73000000000002 51.9)"/><use xlink:href="#n" transform="matrix(1,0,0,1,259.0000000000003,1425.0427809025196) translate(172.63000000000002 51.9)"/><use xlink:href="#o" transform="matrix(1,0,0,1,259.0000000000003,1425.0427809025196) translate(260.48 51.9)"/><use xlink:href="#p" transform="matrix(1,0,0,1,259.0000000000003,1425.0427809025196) translate(326.43 51.9)"/><use xlink:href="#q" transform="matrix(1,0,0,1,259.0000000000003,1425.0427809025196) translate(368.38 51.9)"/><use xlink:href="#r" transform="matrix(1,0,0,1,259.0000000000003,1425.0427809025196) translate(432.28 51.9)"/><use xlink:href="#s" transform="matrix(1,0,0,1,259.0000000000003,1425.0427809025196) translate(538.23 51.9)"/><use xlink:href="#t" transform="matrix(1,0,0,1,259.0000000000003,1425.0427809025196) translate(281.055 73.5)"/><path d="M180 1065.82a8 8 0 0 1 8-8h764a8 8 0 0 1 8 8v175.7a8 8 0 0 1-8 8H188a8 8 0 0 1-8-8z" stroke="#333" fill="#fff"/><path d="M950 1067.82h-15v20h15z" stroke="#333" fill="#fff"/><path d="M940 1071.15h-10v3.34h10zm0 10h-10v3.34h10zM209.25 1095.74a8 8 0 0 1 8-8h315.5a8 8 0 0 1 8 8V1232a8 8 0 0 1-8 8h-315.5a8 8 0 0 1-8-8z" stroke="#333" fill="#fff"/><path d="M530.75 1097.74h-15v20h15z" stroke="#333" fill="#fff"/><path d="M520.75 1101.07h-10v3.34h10zm0 10h-10v3.34h10z" stroke="#333" fill="#fff"/><use xlink:href="#u" transform="matrix(1,0,0,1,209.25000000000006,1087.7415164256513) translate(31.20500000000002 81.3375)"/><path d="M599.25 1095.74a8 8 0 0 1 8-8h315.5a8 8 0 0 1 8 8V1232a8 8 0 0 1-8 8h-315.5a8 8 0 0 1-8-8z" stroke="#333" fill="#fff"/><path d="M920.75 1097.74h-15v20h15z" stroke="#333" fill="#fff"/><path d="M910.75 1101.07h-10v3.34h10zm0 10h-10v3.34h10z" stroke="#333" fill="#fff"/><use xlink:href="#v" transform="matrix(1,0,0,1,599.25,1087.7415164256513) translate(37.20500000000002 81.3375)"/><path d="M442.28 1065.82a8 8 0 0 1 8-8h218a8 8 0 0 1 8 8v12.55a8 8 0 0 1-8 8h-218a8 8 0 0 1-8-8z" stroke="#000" stroke-opacity="0" fill="#fff" fill-opacity="0"/><use xlink:href="#w" transform="matrix(1,0,0,1,447.2750000000001,1062.820873971057) translate(53.599999999999994 14.4)"/><use xlink:href="#x" transform="matrix(1,0,0,1,447.2750000000001,1062.820873971057) translate(99.5 14.4)"/><path d="M570 1250.48v45.45" stroke="#333" fill="none"/><path d="M570.5 1250.5h-1v-.52h1z" stroke="#333" stroke-width=".05" fill="#333"/><path d="M570 1310.7l-4.64-14.27h9.28z" stroke="#333" fill="#333"/><path d="M184.5 648a8 8 0 0 1 8-8h764a8 8 0 0 1 8 8v357.95a8 8 0 0 1-8 8h-764a8 8 0 0 1-8-8z" stroke="#333" fill="#fff"/><path d="M954.5 650h-15v20h15z" stroke="#333" fill="#fff"/><path d="M944.5 653.33h-10v3.34h10zm0 10h-10v3.34h10z" stroke="#333" fill="#fff"/><path d="M424.5 648a8 8 0 0 1 8-8H712a8 8 0 0 1 8 8v30.12a8 8 0 0 1-8 8H432.5a8 8 0 0 1-8-8z" stroke="#000" stroke-opacity="0" fill="#fff" fill-opacity="0"/><use xlink:href="#y" transform="matrix(1,0,0,1,429.50000000000045,645) translate(14.700000000000017 14.4)"/><use xlink:href="#z" transform="matrix(1,0,0,1,429.50000000000045,645) translate(113.555 36)"/><path d="M204.5 718.95a5 5 0 0 1 5-5h150a5 5 0 0 1 5 5v110a5 5 0 0 1-5 5h-150a5 5 0 0 1-5-5z" stroke="#666" fill="#ffe4e4"/><path d="M354.5 723.95h-15v20h15z" stroke="#666" fill="#ffe4e4"/><path d="M344.5 727.3h-10v3.32h10zm0 10h-10v3.32h10z" stroke="#666" fill="#ffe4e4"/><use xlink:href="#A" transform="matrix(1,0,0,1,204.50000000000023,713.9538253158765) translate(49.529999999999994 63.15)"/><path d="M384.5 716.7a5 5 0 0 1 5-5h150a5 5 0 0 1 5 5v110a5 5 0 0 1-5 5h-150a5 5 0 0 1-5-5z" stroke="#666" fill="#ffe4e4"/><path d="M534.5 721.7h-15v20h15z" stroke="#666" fill="#ffe4e4"/><path d="M524.5 725.04h-10v3.34h10zm0 10h-10v3.34h10z" stroke="#666" fill="#ffe4e4"/><use xlink:href="#B" transform="matrix(1,0,0,1,384.5000000000002,711.7099596330826) translate(56.555 63.15)"/><path d="M720.45 663.06h10.36a1.42 1.42 0 0 1 1.43 1.4v1.43" stroke="#333" fill="none"/><path d="M720.47 663.56h-.52v-1h.52z" stroke="#333" stroke-width=".05" fill="#333"/><path d="M742.97 669.5l-15-.15 2.94-8.8z" stroke="#333" fill="#333"/><path d="M584.5 716.7a5 5 0 0 1 5-5h150a5 5 0 0 1 5 5v110a5 5 0 0 1-5 5h-150a5 5 0 0 1-5-5z" stroke="#666" fill="#ffe4e4"/><path d="M734.5 721.7h-15v20h15z" stroke="#666" fill="#ffe4e4"/><path d="M724.5 725.04h-10v3.34h10zm0 10h-10v3.34h10z" stroke="#666" fill="#ffe4e4"/><use xlink:href="#C" transform="matrix(1,0,0,1,584.5000000000002,711.7099596330826) translate(19.10499999999999 63.15)"/><use xlink:href="#D" transform="matrix(1,0,0,1,584.5000000000002,711.7099596330826) translate(106.95500000000001 63.15)"/><path d="M784.5 716.7a5 5 0 0 1 5-5h150a5 5 0 0 1 5 5v110a5 5 0 0 1-5 5h-150a5 5 0 0 1-5-5z" stroke="#666" fill="#ffe4e4"/><path d="M934.5 721.7h-15v20h15z" stroke="#666" fill="#ffe4e4"/><path d="M924.5 725.04h-10v3.34h10zm0 10h-10v3.34h10z" stroke="#666" fill="#ffe4e4"/><use xlink:href="#E" transform="matrix(1,0,0,1,784.5000000000002,711.7099596330826) translate(48.55499999999999 63.15)"/><path d="M644.5 791.68a8 8 0 0 1 8-8h224a8 8 0 0 1 8 8v44a8 8 0 0 1-8 8h-224a8 8 0 0 1-8-8z" stroke="#000" stroke-opacity="0" fill="#fff" fill-opacity="0"/><use xlink:href="#F" transform="matrix(1,0,0,1,649.5000000000002,788.6844688055461) translate(107.5 30.025)"/><path d="M364.5 865.3a8 8 0 0 1 8-8h364a8 8 0 0 1 8 8v120.65a8 8 0 0 1-8 8h-364a8 8 0 0 1-8-8z" stroke="#333" fill="#fff"/><path d="M734.5 867.3h-15v20h15z" stroke="#333" fill="#fff"/><path d="M724.5 870.64h-10v3.33h10zm0 10h-10v3.33h10z" stroke="#333" fill="#fff"/><use xlink:href="#G" transform="matrix(1,0,0,1,364.5000000000002,857.3035378494249) translate(28.75500000000003 70.05625)"/><path d="M257.2 248a8 8 0 0 1 8-8h609.6a8 8 0 0 1 8 8v324a8 8 0 0 1-8 8H265.2a8 8 0 0 1-8-8z" stroke="#333" fill="#fff"/><path d="M872.8 250h-15v20h15z" stroke="#333" fill="#fff"/><path d="M862.8 253.33h-10v3.34h10zm0 10h-10v3.34h10z" stroke="#333" fill="#fff"/><path d="M303.18 442.82a5 5 0 0 1 5-5h150a5 5 0 0 1 5 5v110a5 5 0 0 1-5 5h-150a5 5 0 0 1-5-5z" stroke="#666" fill="#ffe4e4"/><path d="M453.18 447.82h-15v20h15z" stroke="#666" fill="#ffe4e4"/><path d="M443.18 451.15h-10v3.34h10zm0 10h-10v3.34h10z" stroke="#666" fill="#ffe4e4"/><use xlink:href="#H" transform="matrix(1,0,0,1,303.17687869315705,437.8208739710569) translate(55.555 63.15)"/><path d="M488.78 442.82a5 5 0 0 1 5-5h150a5 5 0 0 1 5 5v110a5 5 0 0 1-5 5h-150a5 5 0 0 1-5-5z" stroke="#666" fill="#ffe4e4"/><path d="M638.78 447.82h-15v20h15z" stroke="#666" fill="#ffe4e4"/><path d="M628.78 451.15h-10v3.34h10zm0 10h-10v3.34h10z" stroke="#666" fill="#ffe4e4"/><use xlink:href="#I" transform="matrix(1,0,0,1,488.78458579543803,437.8208739710569) translate(71.03 63.15)"/><path d="M674.4 442.82a5 5 0 0 1 5-5h150a5 5 0 0 1 5 5v110a5 5 0 0 1-5 5h-150a5 5 0 0 1-5-5z" stroke="#666" fill="#ffe4e4"/><path d="M824.4 447.82h-15v20h15z" stroke="#666" fill="#ffe4e4"/><path d="M814.4 451.15h-10v3.34h10zm0 10h-10v3.34h10z" stroke="#666" fill="#ffe4e4"/><g><use xlink:href="#J" transform="matrix(1,0,0,1,674.392292897719,437.8208739710569) translate(38.55499999999999 63.15)"/></g><path d="M303.18 305a5 5 0 0 1 5-5h521.2a5 5 0 0 1 5 5v110a5 5 0 0 1-5 5H308.2a5 5 0 0 1-5-5z" stroke="#666" fill="#ffe4e4"/><path d="M824.4 310h-15v20h15z" stroke="#666" fill="#ffe4e4"/><path d="M814.4 313.33h-10v3.34h10zm0 10h-10v3.34h10z" stroke="#666" fill="#ffe4e4"/><g><use xlink:href="#K" transform="matrix(1,0,0,1,303.17687869315705,300) translate(217.105 63.15)"/></g><path d="M443.18 248a8 8 0 0 1 8-8h224a8 8 0 0 1 8 8v44a8 8 0 0 1-8 8h-224a8 8 0 0 1-8-8z" stroke="#000" stroke-opacity="0" fill="#fff" fill-opacity="0"/><g><use xlink:href="#L" transform="matrix(1,0,0,1,448.17687869315705,245) translate(-46.24999999999997 17.799999999999997)"/><use xlink:href="#z" transform="matrix(1,0,0,1,448.17687869315705,245) translate(85.55 39.4)"/></g><g transform="matrix(1,0,0,1,448.17687869315705,245)"><a xlink:href="http://com.archimatetool.recommender.feature" target="_blank"><path class="lucid-link lucid-hotspot lucid-overlay-hotspot" fill-opacity="0" d="M-46.25 3.4h322.5V25h-322.5z"/></a></g><path d="M625.33 1014.9v1.43m0 1.92v2.87m0 1.92v2.87m0 1.93v2.87m0 1.92v2.87m0 1.9v1.44l.14 1.7m.52 2.2l.64 1.55.9 1.44m1.45 1.7l1.28 1.1 1.44.9m2.1.86l1.64.4h1.46m1.96 0h2.94m1.96 0h2.94m1.96 0l2.94.02m1.96 0h2.94m1.95 0h2.94m1.97 0l2.94.02m1.97 0h2.94m1.97 0h2.94m1.97 0H681m1.96.02h2.94m1.96 0h2.94m1.96 0h2.94m1.96 0l2.93.02m1.95 0h2.94m1.95 0h2.94m1.95 0l2.94.02m1.95 0h2.94m1.94 0h2.94m1.96 0l2.94.02m1.96 0h2.94m1.96 0h2.94m1.96 0h2.93m1.96.02h2.94m1.96 0H753l1.7.14m2.18.52l1.57.65 1.44.9m1.7 1.45l1.1 1.3.9 1.44m.86 2.08l.4 1.65v1.5m.04 1.98l.05 2.98m.03 2l.02 1.48" stroke="#333" fill="none"/><path d="M625.83 1014.9h-1v-.5h1z" stroke="#333" stroke-width=".05" fill="#333"/><path d="M765 1085.67l-4.64-14.26h9.28z" stroke="#333" fill="#333"/><path d="M570 580.95v1.48m0 1.96v2.94m0 1.97v2.96m0 1.97v2.95m0 1.97v2.95m0 1.96v2.96m0 1.96v2.95m0 1.97v2.95m0 1.97v2.95m0 1.97v2.95m0 1.95v2.95m0 1.97v2.95m0 1.97v2.94m0 1.97v2.96m0 1.96v2.96m0 1.96v2.95m0 1.96v2.95m0 1.98v2.95m0 1.97v2.95m0 1.96v2.96m0 1.97v2.95m0 1.97v2.95m0 1.97v2.95m0 1.97v2.94m0 1.96v2.95m0 1.97v2.95m0 1.97v2.95m0 1.96v2.95m0 1.97v3m0 2.03v3.05m0 2.03v3.04m0 2.03v3.05m0 2.03v3.04m0 2.03v3.05m0 2.03v3.05m0 2.03v3.04m0 2.03v3.05m0 2.03v3.05m0 2.03v3.05m0 2.03V776m0 2.03v3.05m0 2.03v3.05m0 2.04v3.03m0 2.03v3.05m0 2.04v3.04m0 2.03v3.06m0 2.03v3.03m0 2.03v3.05m0 2.04v3.04m0 2.03v3.06m0 2.03v3.04m0 2.03v3.04m0 2.04v1.52" stroke="#333" fill="none"/><path d="M570.5 580.96h-1v-.5h1z" stroke="#333" stroke-width=".05" fill="#333"/><path d="M570 855.23l-4.64-14.27h9.28z" stroke="#333" fill="#333"/><defs><path fill="#333" d="M30 0v-248h187v28H63v79h144v27H63v87h162V0H30" id="M"/><path fill="#333" d="M96-169c-40 0-48 33-48 73s9 75 48 75c24 0 41-14 43-38l32 2c-6 37-31 61-74 61-59 0-76-41-82-99-10-93 101-131 147-64 4 7 5 14 7 22l-32 3c-4-21-16-35-41-35" id="N"/><path fill="#333" d="M24 0v-261h32V0H24" id="O"/><path fill="#333" d="M24-231v-30h32v30H24zM24 0v-190h32V0H24" id="P"/><path fill="#333" d="M115-194c55 1 70 41 70 98S169 2 115 4C84 4 66-9 55-30l1 105H24l-1-265h31l2 30c10-21 28-34 59-34zm-8 174c40 0 45-34 45-75s-6-73-45-74c-42 0-51 32-51 76 0 43 10 73 51 73" id="Q"/><path fill="#333" d="M135-143c-3-34-86-38-87 0 15 53 115 12 119 90S17 21 10-45l28-5c4 36 97 45 98 0-10-56-113-15-118-90-4-57 82-63 122-42 12 7 21 19 24 35" id="R"/><path fill="#333" d="M100-194c63 0 86 42 84 106H49c0 40 14 67 53 68 26 1 43-12 49-29l28 8c-11 28-37 45-77 45C44 4 14-33 15-96c1-61 26-98 85-98zm52 81c6-60-76-77-97-28-3 7-6 17-6 28h103" id="S"/><g id="a"><use transform="matrix(0.05,0,0,0.05,0,0)" xlink:href="#M"/><use transform="matrix(0.05,0,0,0.05,12,0)" xlink:href="#N"/><use transform="matrix(0.05,0,0,0.05,21,0)" xlink:href="#O"/><use transform="matrix(0.05,0,0,0.05,24.95,0)" xlink:href="#P"/><use transform="matrix(0.05,0,0,0.05,28.899999999999995,0)" xlink:href="#Q"/><use transform="matrix(0.05,0,0,0.05,38.9,0)" xlink:href="#R"/><use transform="matrix(0.05,0,0,0.05,47.9,0)" xlink:href="#S"/></g><path fill="#333" d="M233-177c-1 41-23 64-60 70L243 0h-38l-65-103H63V0H30v-248c88 3 205-21 203 71zM63-129c60-2 137 13 137-47 0-61-80-42-137-45v92" id="T"/><path fill="#333" d="M212-179c-10-28-35-45-73-45-59 0-87 40-87 99 0 60 29 101 89 101 43 0 62-24 78-52l27 14C228-24 195 4 139 4 59 4 22-46 18-125c-6-104 99-153 187-111 19 9 31 26 39 46" id="U"/><path fill="#333" d="M30-248c87 1 191-15 191 75 0 78-77 80-158 76V0H30v-248zm33 125c57 0 124 11 124-50 0-59-68-47-124-48v98" id="V"/><g id="b"><use transform="matrix(0.05,0,0,0.05,0,0)" xlink:href="#T"/><use transform="matrix(0.05,0,0,0.05,12.950000000000001,0)" xlink:href="#U"/><use transform="matrix(0.05,0,0,0.05,25.900000000000002,0)" xlink:href="#V"/></g><path fill="#333" d="M100-194c62-1 85 37 85 99 1 63-27 99-86 99S16-35 15-95c0-66 28-99 85-99zM99-20c44 1 53-31 53-75 0-43-8-75-51-75s-53 32-53 75 10 74 51 75" id="W"/><path fill="#333" d="M210-169c-67 3-38 105-44 169h-31v-121c0-29-5-50-35-48C34-165 62-65 56 0H25l-1-190h30c1 10-1 24 2 32 10-44 99-50 107 0 11-21 27-35 58-36 85-2 47 119 55 194h-31v-121c0-29-5-49-35-48" id="X"/><path fill="#333" d="M117-194c89-4 53 116 60 194h-32v-121c0-31-8-49-39-48C34-167 62-67 57 0H25l-1-190h30c1 10-1 24 2 32 11-22 29-35 61-36" id="Y"/><path fill="#333" d="M59-47c-2 24 18 29 38 22v24C64 9 27 4 27-40v-127H5v-23h24l9-43h21v43h35v23H59v120" id="Z"/><g id="c"><use transform="matrix(0.05,0,0,0.05,0,0)" xlink:href="#U"/><use transform="matrix(0.05,0,0,0.05,12.950000000000001,0)" xlink:href="#W"/><use transform="matrix(0.05,0,0,0.05,22.950000000000003,0)" xlink:href="#X"/><use transform="matrix(0.05,0,0,0.05,37.900000000000006,0)" xlink:href="#Q"/><use transform="matrix(0.05,0,0,0.05,47.900000000000006,0)" xlink:href="#W"/><use transform="matrix(0.05,0,0,0.05,57.900000000000006,0)" xlink:href="#Y"/><use transform="matrix(0.05,0,0,0.05,67.9,0)" xlink:href="#S"/><use transform="matrix(0.05,0,0,0.05,77.9,0)" xlink:href="#Y"/><use transform="matrix(0.05,0,0,0.05,87.9,0)" xlink:href="#Z"/><use transform="matrix(0.05,0,0,0.05,92.9,0)" xlink:href="#R"/></g><path fill="#333" d="M84 4C-5 8 30-112 23-190h32v120c0 31 7 50 39 49 72-2 45-101 50-169h31l1 190h-30c-1-10 1-25-2-33-11 22-28 36-60 37" id="aa"/><g id="d"><use transform="matrix(0.04938271604938272,0,0,0.04938271604938272,0,0)" xlink:href="#T"/><use transform="matrix(0.04938271604938272,0,0,0.04938271604938272,12.790123456790125,0)" xlink:href="#aa"/><use transform="matrix(0.04938271604938272,0,0,0.04938271604938272,22.66666666666667,0)" xlink:href="#Y"/><use transform="matrix(0.04938271604938272,0,0,0.04938271604938272,32.543209876543216,0)" xlink:href="#Z"/><use transform="matrix(0.04938271604938272,0,0,0.04938271604938272,37.48148148148149,0)" xlink:href="#P"/><use transform="matrix(0.04938271604938272,0,0,0.04938271604938272,41.38271604938272,0)" xlink:href="#X"/><use transform="matrix(0.04938271604938272,0,0,0.04938271604938272,56.14814814814815,0)" xlink:href="#S"/></g><path fill="#333" d="M87 75C49 33 22-17 22-94c0-76 28-126 65-167h31c-38 41-64 92-64 168S80 34 118 75H87" id="ab"/><path fill="#333" d="M145-31C134-9 116 4 85 4 32 4 16-35 15-94c0-59 17-99 70-100 32-1 48 14 60 33 0-11-1-24 2-32h30l-1 268h-32zM93-21c41 0 51-33 51-76s-8-73-50-73c-40 0-46 35-46 75s5 74 45 74" id="ac"/><path fill="#333" d="M141 0L90-78 38 0H4l68-98-65-92h35l48 74 47-74h35l-64 92 68 98h-35" id="ad"/><path fill="#333" d="M33-261c38 41 65 92 65 168S71 34 33 75H2C39 34 66-17 66-93S39-220 2-261h31" id="ae"/><g id="e"><use transform="matrix(0.04938271604938272,0,0,0.04938271604938272,0,0)" xlink:href="#ab"/><use transform="matrix(0.04938271604938272,0,0,0.04938271604938272,5.8765432098765435,0)" xlink:href="#M"/><use transform="matrix(0.04938271604938272,0,0,0.04938271604938272,17.728395061728396,0)" xlink:href="#ac"/><use transform="matrix(0.04938271604938272,0,0,0.04938271604938272,27.60493827160494,0)" xlink:href="#aa"/><use transform="matrix(0.04938271604938272,0,0,0.04938271604938272,37.48148148148148,0)" xlink:href="#P"/><use transform="matrix(0.04938271604938272,0,0,0.04938271604938272,41.382716049382715,0)" xlink:href="#Y"/><use transform="matrix(0.04938271604938272,0,0,0.04938271604938272,51.25925925925927,0)" xlink:href="#W"/><use transform="matrix(0.04938271604938272,0,0,0.04938271604938272,61.13580246913581,0)" xlink:href="#ad"/><use transform="matrix(0.04938271604938272,0,0,0.04938271604938272,70.0246913580247,0)" xlink:href="#ae"/></g><path fill="#333" d="M240 0l2-218c-23 76-54 145-80 218h-23L58-218 59 0H30v-248h44l77 211c21-75 51-140 76-211h43V0h-30" id="af"/><path fill="#333" d="M63-220v92h138v28H63V0H30v-248h175v28H63" id="ag"/><g id="f"><use transform="matrix(0.04938271604938272,0,0,0.04938271604938272,0,0)" xlink:href="#M"/><use transform="matrix(0.04938271604938272,0,0,0.04938271604938272,11.851851851851853,0)" xlink:href="#af"/><use transform="matrix(0.04938271604938272,0,0,0.04938271604938272,26.617283950617285,0)" xlink:href="#ag"/></g><path fill="#333" d="M114-163C36-179 61-72 57 0H25l-1-190h30c1 12-1 29 2 39 6-27 23-49 58-41v29" id="ah"/><g id="g"><use transform="matrix(0.04938271604938272,0,0,0.04938271604938272,0,0)" xlink:href="#U"/><use transform="matrix(0.04938271604938272,0,0,0.04938271604938272,12.790123456790125,0)" xlink:href="#W"/><use transform="matrix(0.04938271604938272,0,0,0.04938271604938272,22.66666666666667,0)" xlink:href="#ah"/><use transform="matrix(0.04938271604938272,0,0,0.04938271604938272,28.54320987654322,0)" xlink:href="#S"/></g><path fill="#333" d="M232-93c-1 65-40 97-104 97C67 4 28-28 28-90v-158h33c8 89-33 224 67 224 102 0 64-133 71-224h33v155" id="ai"/><path fill="#333" d="M33 0v-248h34V0H33" id="aj"/><g id="h"><use transform="matrix(0.04938271604938272,0,0,0.04938271604938272,0,0)" xlink:href="#ai"/><use transform="matrix(0.04938271604938272,0,0,0.04938271604938272,12.790123456790125,0)" xlink:href="#aj"/></g><g id="i"><use transform="matrix(0.04938271604938272,0,0,0.04938271604938272,0,0)" xlink:href="#U"/><use transform="matrix(0.04938271604938272,0,0,0.04938271604938272,12.790123456790125,0)" xlink:href="#W"/><use transform="matrix(0.04938271604938272,0,0,0.04938271604938272,22.66666666666667,0)" xlink:href="#ah"/><use transform="matrix(0.04938271604938272,0,0,0.04938271604938272,28.54320987654322,0)" xlink:href="#S"/></g><path fill="#333" d="M153-248C145-148 188 4 80 4 36 3 13-21 6-62l32-5c4 25 16 42 43 43 27 0 39-20 39-49v-147H72v-28h81" id="ak"/><path fill="#333" d="M141-36C126-15 110 5 73 4 37 3 15-17 15-53c-1-64 63-63 125-63 3-35-9-54-41-54-24 1-41 7-42 31l-33-3c5-37 33-52 76-52 45 0 72 20 72 64v82c-1 20 7 32 28 27v20c-31 9-61-2-59-35zM48-53c0 20 12 33 32 33 41-3 63-29 60-74-43 2-92-5-92 41" id="al"/><g id="j"><use transform="matrix(0.04938271604938272,0,0,0.04938271604938272,0,0)" xlink:href="#ab"/><use transform="matrix(0.04938271604938272,0,0,0.04938271604938272,5.8765432098765435,0)" xlink:href="#ak"/><use transform="matrix(0.04938271604938272,0,0,0.04938271604938272,14.765432098765434,0)" xlink:href="#ag"/><use transform="matrix(0.04938271604938272,0,0,0.04938271604938272,25.58024691358025,0)" xlink:href="#al"/><use transform="matrix(0.04938271604938272,0,0,0.04938271604938272,35.45679012345679,0)" xlink:href="#N"/><use transform="matrix(0.04938271604938272,0,0,0.04938271604938272,44.345679012345684,0)" xlink:href="#S"/></g><path fill="#333" d="M185-189c-5-48-123-54-124 2 14 75 158 14 163 119 3 78-121 87-175 55-17-10-28-26-33-46l33-7c5 56 141 63 141-1 0-78-155-14-162-118-5-82 145-84 179-34 5 7 8 16 11 25" id="am"/><path fill="#333" d="M266 0h-40l-56-210L115 0H75L2-248h35L96-30l15-64 43-154h32l59 218 59-218h35" id="an"/><path fill="#333" d="M127-220V0H93v-220H8v-28h204v28h-85" id="ao"/><g id="k"><use transform="matrix(0.04938271604938272,0,0,0.04938271604938272,0,0)" xlink:href="#am"/><use transform="matrix(0.04938271604938272,0,0,0.04938271604938272,11.851851851851853,0)" xlink:href="#an"/><use transform="matrix(0.04938271604938272,0,0,0.04938271604938272,28.592592592592595,0)" xlink:href="#ao"/><use transform="matrix(0.04938271604938272,0,0,0.04938271604938272,39.40740740740741,0)" xlink:href="#ae"/></g><path fill="#333" d="M205 0l-28-72H64L36 0H1l101-248h38L239 0h-34zm-38-99l-47-123c-12 45-31 82-46 123h93" id="ap"/><g id="l"><use transform="matrix(0.05,0,0,0.05,0,0)" xlink:href="#ap"/><use transform="matrix(0.05,0,0,0.05,12,0)" xlink:href="#Q"/><use transform="matrix(0.05,0,0,0.05,22,0)" xlink:href="#Q"/><use transform="matrix(0.05,0,0,0.05,32,0)" xlink:href="#O"/><use transform="matrix(0.05,0,0,0.05,35.95,0)" xlink:href="#P"/><use transform="matrix(0.05,0,0,0.05,39.900000000000006,0)" xlink:href="#N"/><use transform="matrix(0.05,0,0,0.05,48.900000000000006,0)" xlink:href="#al"/><use transform="matrix(0.05,0,0,0.05,58.900000000000006,0)" xlink:href="#Z"/><use transform="matrix(0.05,0,0,0.05,63.900000000000006,0)" xlink:href="#P"/><use transform="matrix(0.05,0,0,0.05,67.85000000000001,0)" xlink:href="#W"/><use transform="matrix(0.05,0,0,0.05,77.85000000000001,0)" xlink:href="#Y"/></g><path fill="#333" d="M85-194c31 0 48 13 60 33l-1-100h32l1 261h-30c-2-10 0-23-3-31C134-8 116 4 85 4 32 4 16-35 15-94c0-66 23-100 70-100zm9 24c-40 0-46 34-46 75 0 40 6 74 45 74 42 0 51-32 51-76 0-42-9-74-50-73" id="aq"/><path fill="#333" d="M68-38c1 34 0 65-14 84H32c9-13 17-26 17-46H33v-38h35" id="ar"/><g id="m"><use transform="matrix(0.05,0,0,0.05,0,0)" xlink:href="#af"/><use transform="matrix(0.05,0,0,0.05,14.950000000000001,0)" xlink:href="#W"/><use transform="matrix(0.05,0,0,0.05,24.950000000000003,0)" xlink:href="#aq"/><use transform="matrix(0.05,0,0,0.05,34.95,0)" xlink:href="#S"/><use transform="matrix(0.05,0,0,0.05,44.95,0)" xlink:href="#O"/><use transform="matrix(0.05,0,0,0.05,48.900000000000006,0)" xlink:href="#ar"/></g><path fill="#333" d="M177-190C167-65 218 103 67 71c-23-6-38-20-44-43l32-5c15 47 100 32 89-28v-30C133-14 115 1 83 1 29 1 15-40 15-95c0-56 16-97 71-98 29-1 48 16 59 35 1-10 0-23 2-32h30zM94-22c36 0 50-32 50-73 0-42-14-75-50-75-39 0-46 34-46 75s6 73 46 73" id="as"/><g id="n"><use transform="matrix(0.05,0,0,0.05,0,0)" xlink:href="#T"/><use transform="matrix(0.05,0,0,0.05,12.950000000000001,0)" xlink:href="#S"/><use transform="matrix(0.05,0,0,0.05,22.950000000000003,0)" xlink:href="#Y"/><use transform="matrix(0.05,0,0,0.05,32.95,0)" xlink:href="#aq"/><use transform="matrix(0.05,0,0,0.05,42.95,0)" xlink:href="#S"/><use transform="matrix(0.05,0,0,0.05,52.95,0)" xlink:href="#ah"/><use transform="matrix(0.05,0,0,0.05,58.900000000000006,0)" xlink:href="#P"/><use transform="matrix(0.05,0,0,0.05,62.85,0)" xlink:href="#Y"/><use transform="matrix(0.05,0,0,0.05,72.85000000000001,0)" xlink:href="#as"/></g><g id="o"><use transform="matrix(0.05,0,0,0.05,0,0)" xlink:href="#M"/><use transform="matrix(0.05,0,0,0.05,12,0)" xlink:href="#Y"/><use transform="matrix(0.05,0,0,0.05,22,0)" xlink:href="#as"/><use transform="matrix(0.05,0,0,0.05,32,0)" xlink:href="#P"/><use transform="matrix(0.05,0,0,0.05,35.95,0)" xlink:href="#Y"/><use transform="matrix(0.05,0,0,0.05,45.95,0)" xlink:href="#S"/><use transform="matrix(0.05,0,0,0.05,55.95,0)" xlink:href="#ar"/></g><g id="p"><use transform="matrix(0.05,0,0,0.05,0,0)" xlink:href="#U"/><use transform="matrix(0.05,0,0,0.05,12.950000000000001,0)" xlink:href="#am"/><use transform="matrix(0.05,0,0,0.05,24.950000000000003,0)" xlink:href="#am"/></g><path fill="#333" d="M179-190L93 31C79 59 56 82 12 73V49c39 6 53-20 64-50L1-190h34L92-34l54-156h33" id="at"/><g id="q"><use transform="matrix(0.05,0,0,0.05,0,0)" xlink:href="#am"/><use transform="matrix(0.05,0,0,0.05,12,0)" xlink:href="#Z"/><use transform="matrix(0.05,0,0,0.05,17,0)" xlink:href="#at"/><use transform="matrix(0.05,0,0,0.05,26,0)" xlink:href="#O"/><use transform="matrix(0.05,0,0,0.05,29.950000000000003,0)" xlink:href="#P"/><use transform="matrix(0.05,0,0,0.05,33.9,0)" xlink:href="#Y"/><use transform="matrix(0.05,0,0,0.05,43.9,0)" xlink:href="#as"/><use transform="matrix(0.05,0,0,0.05,53.900000000000006,0)" xlink:href="#ar"/></g><path fill="#333" d="M30-248c118-7 216 8 213 122C240-48 200 0 122 0H30v-248zM63-27c89 8 146-16 146-99s-60-101-146-95v194" id="au"/><g id="r"><use transform="matrix(0.05,0,0,0.05,0,0)" xlink:href="#au"/><use transform="matrix(0.05,0,0,0.05,12.950000000000001,0)" xlink:href="#S"/><use transform="matrix(0.05,0,0,0.05,22.950000000000003,0)" xlink:href="#Q"/><use transform="matrix(0.05,0,0,0.05,32.95,0)" xlink:href="#S"/><use transform="matrix(0.05,0,0,0.05,42.95,0)" xlink:href="#Y"/><use transform="matrix(0.05,0,0,0.05,52.95,0)" xlink:href="#aq"/><use transform="matrix(0.05,0,0,0.05,62.95,0)" xlink:href="#S"/><use transform="matrix(0.05,0,0,0.05,72.95,0)" xlink:href="#Y"/><use transform="matrix(0.05,0,0,0.05,82.95,0)" xlink:href="#N"/><use transform="matrix(0.05,0,0,0.05,91.95,0)" xlink:href="#at"/></g><path fill="#333" d="M24-231v-30h32v30H24zM-9 49c24 4 33-6 33-30v-209h32V24c2 40-23 58-65 49V49" id="av"/><g id="s"><use transform="matrix(0.05,0,0,0.05,0,0)" xlink:href="#aj"/><use transform="matrix(0.05,0,0,0.05,5,0)" xlink:href="#Y"/><use transform="matrix(0.05,0,0,0.05,15,0)" xlink:href="#av"/><use transform="matrix(0.05,0,0,0.05,18.95,0)" xlink:href="#S"/><use transform="matrix(0.05,0,0,0.05,28.950000000000003,0)" xlink:href="#N"/><use transform="matrix(0.05,0,0,0.05,37.95,0)" xlink:href="#Z"/><use transform="matrix(0.05,0,0,0.05,42.95,0)" xlink:href="#P"/><use transform="matrix(0.05,0,0,0.05,46.900000000000006,0)" xlink:href="#W"/><use transform="matrix(0.05,0,0,0.05,56.900000000000006,0)" xlink:href="#Y"/><use transform="matrix(0.05,0,0,0.05,66.9,0)" xlink:href="#ar"/></g><path fill="#333" d="M108 0H70L1-190h34L89-25l56-165h34" id="aw"/><g id="t"><use transform="matrix(0.05,0,0,0.05,0,0)" xlink:href="#am"/><use transform="matrix(0.05,0,0,0.05,12,0)" xlink:href="#S"/><use transform="matrix(0.05,0,0,0.05,22,0)" xlink:href="#ah"/><use transform="matrix(0.05,0,0,0.05,27.950000000000003,0)" xlink:href="#aw"/><use transform="matrix(0.05,0,0,0.05,36.95,0)" xlink:href="#P"/><use transform="matrix(0.05,0,0,0.05,40.900000000000006,0)" xlink:href="#N"/><use transform="matrix(0.05,0,0,0.05,49.900000000000006,0)" xlink:href="#S"/><use transform="matrix(0.05,0,0,0.05,59.900000000000006,0)" xlink:href="#R"/></g><path fill="#333" d="M33 0v-38h34V0H33" id="ax"/><path fill="#333" d="M106-169C34-169 62-67 57 0H25v-261h32l-1 103c12-21 28-36 61-36 89 0 53 116 60 194h-32v-121c2-32-8-49-39-48" id="ay"/><path fill="#333" d="M101-234c-31-9-42 10-38 44h38v23H63V0H32v-167H5v-23h27c-7-52 17-82 69-68v24" id="az"/><g id="u"><use transform="matrix(0.05,0,0,0.05,0,0)" xlink:href="#N"/><use transform="matrix(0.05,0,0,0.05,9,0)" xlink:href="#W"/><use transform="matrix(0.05,0,0,0.05,19,0)" xlink:href="#X"/><use transform="matrix(0.05,0,0,0.05,33.95,0)" xlink:href="#ax"/><use transform="matrix(0.05,0,0,0.05,38.95,0)" xlink:href="#al"/><use transform="matrix(0.05,0,0,0.05,48.95,0)" xlink:href="#ah"/><use transform="matrix(0.05,0,0,0.05,54.900000000000006,0)" xlink:href="#N"/><use transform="matrix(0.05,0,0,0.05,63.900000000000006,0)" xlink:href="#ay"/><use transform="matrix(0.05,0,0,0.05,73.9,0)" xlink:href="#P"/><use transform="matrix(0.05,0,0,0.05,77.85000000000001,0)" xlink:href="#X"/><use transform="matrix(0.05,0,0,0.05,92.80000000000001,0)" xlink:href="#al"/><use transform="matrix(0.05,0,0,0.05,102.80000000000001,0)" xlink:href="#Z"/><use transform="matrix(0.05,0,0,0.05,107.80000000000001,0)" xlink:href="#S"/><use transform="matrix(0.05,0,0,0.05,117.80000000000001,0)" xlink:href="#Z"/><use transform="matrix(0.05,0,0,0.05,122.80000000000001,0)" xlink:href="#W"/><use transform="matrix(0.05,0,0,0.05,132.8,0)" xlink:href="#W"/><use transform="matrix(0.05,0,0,0.05,142.8,0)" xlink:href="#O"/><use transform="matrix(0.05,0,0,0.05,146.75,0)" xlink:href="#ax"/><use transform="matrix(0.05,0,0,0.05,151.75,0)" xlink:href="#S"/><use transform="matrix(0.05,0,0,0.05,161.75,0)" xlink:href="#N"/><use transform="matrix(0.05,0,0,0.05,170.75,0)" xlink:href="#O"/><use transform="matrix(0.05,0,0,0.05,174.7,0)" xlink:href="#P"/><use transform="matrix(0.05,0,0,0.05,178.64999999999998,0)" xlink:href="#Q"/><use transform="matrix(0.05,0,0,0.05,188.64999999999998,0)" xlink:href="#R"/><use transform="matrix(0.05,0,0,0.05,197.64999999999998,0)" xlink:href="#S"/><use transform="matrix(0.05,0,0,0.05,207.64999999999998,0)" xlink:href="#ax"/><use transform="matrix(0.05,0,0,0.05,212.64999999999998,0)" xlink:href="#az"/><use transform="matrix(0.05,0,0,0.05,217.64999999999998,0)" xlink:href="#S"/><use transform="matrix(0.05,0,0,0.05,227.64999999999998,0)" xlink:href="#al"/><use transform="matrix(0.05,0,0,0.05,237.64999999999998,0)" xlink:href="#Z"/><use transform="matrix(0.05,0,0,0.05,242.64999999999998,0)" xlink:href="#aa"/><use transform="matrix(0.05,0,0,0.05,252.64999999999998,0)" xlink:href="#ah"/><use transform="matrix(0.05,0,0,0.05,258.59999999999997,0)" xlink:href="#S"/></g><g id="v"><use transform="matrix(0.05,0,0,0.05,0,0)" xlink:href="#N"/><use transform="matrix(0.05,0,0,0.05,9,0)" xlink:href="#W"/><use transform="matrix(0.05,0,0,0.05,19,0)" xlink:href="#X"/><use transform="matrix(0.05,0,0,0.05,33.95,0)" xlink:href="#ax"/><use transform="matrix(0.05,0,0,0.05,38.95,0)" xlink:href="#al"/><use transform="matrix(0.05,0,0,0.05,48.95,0)" xlink:href="#ah"/><use transform="matrix(0.05,0,0,0.05,54.900000000000006,0)" xlink:href="#N"/><use transform="matrix(0.05,0,0,0.05,63.900000000000006,0)" xlink:href="#ay"/><use transform="matrix(0.05,0,0,0.05,73.9,0)" xlink:href="#P"/><use transform="matrix(0.05,0,0,0.05,77.85000000000001,0)" xlink:href="#X"/><use transform="matrix(0.05,0,0,0.05,92.80000000000001,0)" xlink:href="#al"/><use transform="matrix(0.05,0,0,0.05,102.80000000000001,0)" xlink:href="#Z"/><use transform="matrix(0.05,0,0,0.05,107.80000000000001,0)" xlink:href="#S"/><use transform="matrix(0.05,0,0,0.05,117.80000000000001,0)" xlink:href="#Z"/><use transform="matrix(0.05,0,0,0.05,122.80000000000001,0)" xlink:href="#W"/><use transform="matrix(0.05,0,0,0.05,132.8,0)" xlink:href="#W"/><use transform="matrix(0.05,0,0,0.05,142.8,0)" xlink:href="#O"/><use transform="matrix(0.05,0,0,0.05,146.75,0)" xlink:href="#ax"/><use transform="matrix(0.05,0,0,0.05,151.75,0)" xlink:href="#S"/><use transform="matrix(0.05,0,0,0.05,161.75,0)" xlink:href="#aq"/><use transform="matrix(0.05,0,0,0.05,171.75,0)" xlink:href="#P"/><use transform="matrix(0.05,0,0,0.05,175.7,0)" xlink:href="#Z"/><use transform="matrix(0.05,0,0,0.05,180.7,0)" xlink:href="#W"/><use transform="matrix(0.05,0,0,0.05,190.7,0)" xlink:href="#ah"/><use transform="matrix(0.05,0,0,0.05,195.64999999999998,0)" xlink:href="#ax"/><use transform="matrix(0.05,0,0,0.05,200.64999999999998,0)" xlink:href="#az"/><use transform="matrix(0.05,0,0,0.05,205.64999999999998,0)" xlink:href="#S"/><use transform="matrix(0.05,0,0,0.05,215.64999999999998,0)" xlink:href="#al"/><use transform="matrix(0.05,0,0,0.05,225.64999999999998,0)" xlink:href="#Z"/><use transform="matrix(0.05,0,0,0.05,230.64999999999998,0)" xlink:href="#aa"/><use transform="matrix(0.05,0,0,0.05,240.64999999999998,0)" xlink:href="#ah"/><use transform="matrix(0.05,0,0,0.05,246.59999999999997,0)" xlink:href="#S"/></g><g id="w"><use transform="matrix(0.05,0,0,0.05,0,0)" xlink:href="#ap"/><use transform="matrix(0.05,0,0,0.05,12,0)" xlink:href="#ah"/><use transform="matrix(0.05,0,0,0.05,17.95,0)" xlink:href="#N"/><use transform="matrix(0.05,0,0,0.05,26.950000000000003,0)" xlink:href="#ay"/><use transform="matrix(0.05,0,0,0.05,36.95,0)" xlink:href="#P"/></g><g id="x"><use transform="matrix(0.05,0,0,0.05,0,0)" xlink:href="#ag"/><use transform="matrix(0.05,0,0,0.05,10.950000000000001,0)" xlink:href="#S"/><use transform="matrix(0.05,0,0,0.05,20.950000000000003,0)" xlink:href="#al"/><use transform="matrix(0.05,0,0,0.05,30.950000000000003,0)" xlink:href="#Z"/><use transform="matrix(0.05,0,0,0.05,35.95,0)" xlink:href="#aa"/><use transform="matrix(0.05,0,0,0.05,45.95,0)" xlink:href="#ah"/><use transform="matrix(0.05,0,0,0.05,51.900000000000006,0)" xlink:href="#S"/><use transform="matrix(0.05,0,0,0.05,61.900000000000006,0)" xlink:href="#R"/></g><g id="y"><use transform="matrix(0.05,0,0,0.05,0,0)" xlink:href="#N"/><use transform="matrix(0.05,0,0,0.05,9,0)" xlink:href="#W"/><use transform="matrix(0.05,0,0,0.05,19,0)" xlink:href="#X"/><use transform="matrix(0.05,0,0,0.05,33.95,0)" xlink:href="#ax"/><use transform="matrix(0.05,0,0,0.05,38.95,0)" xlink:href="#al"/><use transform="matrix(0.05,0,0,0.05,48.95,0)" xlink:href="#ah"/><use transform="matrix(0.05,0,0,0.05,54.900000000000006,0)" xlink:href="#N"/><use transform="matrix(0.05,0,0,0.05,63.900000000000006,0)" xlink:href="#ay"/><use transform="matrix(0.05,0,0,0.05,73.9,0)" xlink:href="#P"/><use transform="matrix(0.05,0,0,0.05,77.85000000000001,0)" xlink:href="#X"/><use transform="matrix(0.05,0,0,0.05,92.80000000000001,0)" xlink:href="#al"/><use transform="matrix(0.05,0,0,0.05,102.80000000000001,0)" xlink:href="#Z"/><use transform="matrix(0.05,0,0,0.05,107.80000000000001,0)" xlink:href="#S"/><use transform="matrix(0.05,0,0,0.05,117.80000000000001,0)" xlink:href="#Z"/><use transform="matrix(0.05,0,0,0.05,122.80000000000001,0)" xlink:href="#W"/><use transform="matrix(0.05,0,0,0.05,132.8,0)" xlink:href="#W"/><use transform="matrix(0.05,0,0,0.05,142.8,0)" xlink:href="#O"/><use transform="matrix(0.05,0,0,0.05,146.75,0)" xlink:href="#ax"/><use transform="matrix(0.05,0,0,0.05,151.75,0)" xlink:href="#S"/><use transform="matrix(0.05,0,0,0.05,161.75,0)" xlink:href="#aq"/><use transform="matrix(0.05,0,0,0.05,171.75,0)" xlink:href="#P"/><use transform="matrix(0.05,0,0,0.05,175.7,0)" xlink:href="#Z"/><use transform="matrix(0.05,0,0,0.05,180.7,0)" xlink:href="#W"/><use transform="matrix(0.05,0,0,0.05,190.7,0)" xlink:href="#ah"/><use transform="matrix(0.05,0,0,0.05,195.64999999999998,0)" xlink:href="#ax"/><use transform="matrix(0.05,0,0,0.05,200.64999999999998,0)" xlink:href="#az"/><use transform="matrix(0.05,0,0,0.05,205.64999999999998,0)" xlink:href="#S"/><use transform="matrix(0.05,0,0,0.05,215.64999999999998,0)" xlink:href="#al"/><use transform="matrix(0.05,0,0,0.05,225.64999999999998,0)" xlink:href="#Z"/><use transform="matrix(0.05,0,0,0.05,230.64999999999998,0)" xlink:href="#aa"/><use transform="matrix(0.05,0,0,0.05,240.64999999999998,0)" xlink:href="#ah"/><use transform="matrix(0.05,0,0,0.05,246.59999999999997,0)" xlink:href="#S"/></g><g id="z"><use transform="matrix(0.05,0,0,0.05,0,0)" xlink:href="#V"/><use transform="matrix(0.05,0,0,0.05,12,0)" xlink:href="#O"/><use transform="matrix(0.05,0,0,0.05,15.949999999999998,0)" xlink:href="#aa"/><use transform="matrix(0.05,0,0,0.05,25.950000000000003,0)" xlink:href="#as"/><use transform="matrix(0.05,0,0,0.05,35.95,0)" xlink:href="#P"/><use transform="matrix(0.05,0,0,0.05,39.900000000000006,0)" xlink:href="#Y"/><use transform="matrix(0.05,0,0,0.05,49.900000000000006,0)" xlink:href="#R"/></g><g id="A"><use transform="matrix(0.05,0,0,0.05,0,0)" xlink:href="#U"/><use transform="matrix(0.05,0,0,0.05,12.950000000000001,0)" xlink:href="#al"/><use transform="matrix(0.05,0,0,0.05,22.950000000000003,0)" xlink:href="#Y"/><use transform="matrix(0.05,0,0,0.05,32.95,0)" xlink:href="#aw"/><use transform="matrix(0.05,0,0,0.05,41.95,0)" xlink:href="#al"/><use transform="matrix(0.05,0,0,0.05,51.95,0)" xlink:href="#R"/></g><g id="B"><use transform="matrix(0.05,0,0,0.05,0,0)" xlink:href="#M"/><use transform="matrix(0.05,0,0,0.05,12,0)" xlink:href="#aq"/><use transform="matrix(0.05,0,0,0.05,22,0)" xlink:href="#P"/><use transform="matrix(0.05,0,0,0.05,25.950000000000003,0)" xlink:href="#Z"/><use transform="matrix(0.05,0,0,0.05,30.950000000000003,0)" xlink:href="#W"/><use transform="matrix(0.05,0,0,0.05,40.95,0)" xlink:href="#ah"/></g><g id="C"><use transform="matrix(0.05,0,0,0.05,0,0)" xlink:href="#U"/><use transform="matrix(0.05,0,0,0.05,12.950000000000001,0)" xlink:href="#W"/><use transform="matrix(0.05,0,0,0.05,22.950000000000003,0)" xlink:href="#X"/><use transform="matrix(0.05,0,0,0.05,37.900000000000006,0)" xlink:href="#X"/><use transform="matrix(0.05,0,0,0.05,52.85,0)" xlink:href="#al"/><use transform="matrix(0.05,0,0,0.05,62.85,0)" xlink:href="#Y"/><use transform="matrix(0.05,0,0,0.05,72.85000000000001,0)" xlink:href="#aq"/></g><path fill="#333" d="M30 0v-248h33v221h125V0H30" id="aA"/><g id="D"><use transform="matrix(0.05,0,0,0.05,0,0)" xlink:href="#aA"/><use transform="matrix(0.05,0,0,0.05,10,0)" xlink:href="#P"/><use transform="matrix(0.05,0,0,0.05,13.949999999999998,0)" xlink:href="#Y"/><use transform="matrix(0.05,0,0,0.05,23.95,0)" xlink:href="#S"/></g><g id="E"><use transform="matrix(0.05,0,0,0.05,0,0)" xlink:href="#T"/><use transform="matrix(0.05,0,0,0.05,12.950000000000001,0)" xlink:href="#S"/><use transform="matrix(0.05,0,0,0.05,22.950000000000003,0)" xlink:href="#Q"/><use transform="matrix(0.05,0,0,0.05,32.95,0)" xlink:href="#W"/><use transform="matrix(0.05,0,0,0.05,42.95,0)" xlink:href="#ah"/><use transform="matrix(0.05,0,0,0.05,48.900000000000006,0)" xlink:href="#Z"/><use transform="matrix(0.05,0,0,0.05,53.900000000000006,0)" xlink:href="#R"/></g><g id="F"><use transform="matrix(0.05,0,0,0.05,0,0)" xlink:href="#ax"/><use transform="matrix(0.05,0,0,0.05,5,0)" xlink:href="#ax"/><use transform="matrix(0.05,0,0,0.05,10,0)" xlink:href="#ax"/></g><g id="G"><use transform="matrix(0.05,0,0,0.05,0,0)" xlink:href="#N"/><use transform="matrix(0.05,0,0,0.05,9,0)" xlink:href="#W"/><use transform="matrix(0.05,0,0,0.05,19,0)" xlink:href="#X"/><use transform="matrix(0.05,0,0,0.05,33.95,0)" xlink:href="#ax"/><use transform="matrix(0.05,0,0,0.05,38.95,0)" xlink:href="#al"/><use transform="matrix(0.05,0,0,0.05,48.95,0)" xlink:href="#ah"/><use transform="matrix(0.05,0,0,0.05,54.900000000000006,0)" xlink:href="#N"/><use transform="matrix(0.05,0,0,0.05,63.900000000000006,0)" xlink:href="#ay"/><use transform="matrix(0.05,0,0,0.05,73.9,0)" xlink:href="#P"/><use transform="matrix(0.05,0,0,0.05,77.85000000000001,0)" xlink:href="#X"/><use transform="matrix(0.05,0,0,0.05,92.80000000000001,0)" xlink:href="#al"/><use transform="matrix(0.05,0,0,0.05,102.80000000000001,0)" xlink:href="#Z"/><use transform="matrix(0.05,0,0,0.05,107.80000000000001,0)" xlink:href="#S"/><use transform="matrix(0.05,0,0,0.05,117.80000000000001,0)" xlink:href="#Z"/><use transform="matrix(0.05,0,0,0.05,122.80000000000001,0)" xlink:href="#W"/><use transform="matrix(0.05,0,0,0.05,132.8,0)" xlink:href="#W"/><use transform="matrix(0.05,0,0,0.05,142.8,0)" xlink:href="#O"/><use transform="matrix(0.05,0,0,0.05,146.75,0)" xlink:href="#ax"/><use transform="matrix(0.05,0,0,0.05,151.75,0)" xlink:href="#ah"/><use transform="matrix(0.05,0,0,0.05,157.7,0)" xlink:href="#S"/><use transform="matrix(0.05,0,0,0.05,167.7,0)" xlink:href="#N"/><use transform="matrix(0.05,0,0,0.05,176.7,0)" xlink:href="#W"/><use transform="matrix(0.05,0,0,0.05,186.7,0)" xlink:href="#X"/><use transform="matrix(0.05,0,0,0.05,201.64999999999998,0)" xlink:href="#X"/><use transform="matrix(0.05,0,0,0.05,216.59999999999997,0)" xlink:href="#S"/><use transform="matrix(0.05,0,0,0.05,226.59999999999997,0)" xlink:href="#Y"/><use transform="matrix(0.05,0,0,0.05,236.59999999999997,0)" xlink:href="#aq"/><use transform="matrix(0.05,0,0,0.05,246.59999999999997,0)" xlink:href="#S"/><use transform="matrix(0.05,0,0,0.05,256.59999999999997,0)" xlink:href="#ah"/><use transform="matrix(0.05,0,0,0.05,261.54999999999995,0)" xlink:href="#ax"/><use transform="matrix(0.05,0,0,0.05,266.54999999999995,0)" xlink:href="#az"/><use transform="matrix(0.05,0,0,0.05,271.54999999999995,0)" xlink:href="#S"/><use transform="matrix(0.05,0,0,0.05,281.54999999999995,0)" xlink:href="#al"/><use transform="matrix(0.05,0,0,0.05,291.54999999999995,0)" xlink:href="#Z"/><use transform="matrix(0.05,0,0,0.05,296.54999999999995,0)" xlink:href="#aa"/><use transform="matrix(0.05,0,0,0.05,306.54999999999995,0)" xlink:href="#ah"/><use transform="matrix(0.05,0,0,0.05,312.49999999999994,0)" xlink:href="#S"/></g><g id="H"><use transform="matrix(0.05,0,0,0.05,0,0)" xlink:href="#af"/><use transform="matrix(0.05,0,0,0.05,14.950000000000001,0)" xlink:href="#W"/><use transform="matrix(0.05,0,0,0.05,24.950000000000003,0)" xlink:href="#aq"/><use transform="matrix(0.05,0,0,0.05,34.95,0)" xlink:href="#S"/><use transform="matrix(0.05,0,0,0.05,44.95,0)" xlink:href="#O"/></g><g id="I"><use transform="matrix(0.05,0,0,0.05,0,0)" xlink:href="#ai"/><use transform="matrix(0.05,0,0,0.05,12.950000000000001,0)" xlink:href="#aj"/></g><g id="J"><use transform="matrix(0.05,0,0,0.05,0,0)" xlink:href="#U"/><use transform="matrix(0.05,0,0,0.05,12.950000000000001,0)" xlink:href="#W"/><use transform="matrix(0.05,0,0,0.05,22.950000000000003,0)" xlink:href="#Y"/><use transform="matrix(0.05,0,0,0.05,32.95,0)" xlink:href="#Y"/><use transform="matrix(0.05,0,0,0.05,42.95,0)" xlink:href="#S"/><use transform="matrix(0.05,0,0,0.05,52.95,0)" xlink:href="#N"/><use transform="matrix(0.05,0,0,0.05,61.95,0)" xlink:href="#Z"/><use transform="matrix(0.05,0,0,0.05,66.95,0)" xlink:href="#W"/><use transform="matrix(0.05,0,0,0.05,76.95,0)" xlink:href="#ah"/></g><path fill="#333" d="M115-194c53 0 69 39 70 98 0 66-23 100-70 100C84 3 66-7 56-30L54 0H23l1-261h32v101c10-23 28-34 59-34zm-8 174c40 0 45-34 45-75 0-40-5-75-45-74-42 0-51 32-51 76 0 43 10 73 51 73" id="aB"/><g id="K"><use transform="matrix(0.05,0,0,0.05,0,0)" xlink:href="#U"/><use transform="matrix(0.05,0,0,0.05,12.950000000000001,0)" xlink:href="#W"/><use transform="matrix(0.05,0,0,0.05,22.950000000000003,0)" xlink:href="#Y"/><use transform="matrix(0.05,0,0,0.05,32.95,0)" xlink:href="#Z"/><use transform="matrix(0.05,0,0,0.05,37.95,0)" xlink:href="#ah"/><use transform="matrix(0.05,0,0,0.05,43.900000000000006,0)" xlink:href="#P"/><use transform="matrix(0.05,0,0,0.05,47.85000000000001,0)" xlink:href="#aB"/><use transform="matrix(0.05,0,0,0.05,57.85,0)" xlink:href="#aa"/><use transform="matrix(0.05,0,0,0.05,67.85000000000001,0)" xlink:href="#Z"/><use transform="matrix(0.05,0,0,0.05,72.85000000000001,0)" xlink:href="#P"/><use transform="matrix(0.05,0,0,0.05,76.80000000000001,0)" xlink:href="#W"/><use transform="matrix(0.05,0,0,0.05,86.80000000000001,0)" xlink:href="#Y"/></g><g id="L"><use transform="matrix(0.05,0,0,0.05,0,0)" xlink:href="#N"/><use transform="matrix(0.05,0,0,0.05,9,0)" xlink:href="#W"/><use transform="matrix(0.05,0,0,0.05,19,0)" xlink:href="#X"/><use transform="matrix(0.05,0,0,0.05,33.95,0)" xlink:href="#ax"/><use transform="matrix(0.05,0,0,0.05,38.95,0)" xlink:href="#al"/><use transform="matrix(0.05,0,0,0.05,48.95,0)" xlink:href="#ah"/><use transform="matrix(0.05,0,0,0.05,54.900000000000006,0)" xlink:href="#N"/><use transform="matrix(0.05,0,0,0.05,63.900000000000006,0)" xlink:href="#ay"/><use transform="matrix(0.05,0,0,0.05,73.9,0)" xlink:href="#P"/><use transform="matrix(0.05,0,0,0.05,77.85000000000001,0)" xlink:href="#X"/><use transform="matrix(0.05,0,0,0.05,92.80000000000001,0)" xlink:href="#al"/><use transform="matrix(0.05,0,0,0.05,102.80000000000001,0)" xlink:href="#Z"/><use transform="matrix(0.05,0,0,0.05,107.80000000000001,0)" xlink:href="#S"/><use transform="matrix(0.05,0,0,0.05,117.80000000000001,0)" xlink:href="#Z"/><use transform="matrix(0.05,0,0,0.05,122.80000000000001,0)" xlink:href="#W"/><use transform="matrix(0.05,0,0,0.05,132.8,0)" xlink:href="#W"/><use transform="matrix(0.05,0,0,0.05,142.8,0)" xlink:href="#O"/><use transform="matrix(0.05,0,0,0.05,146.75,0)" xlink:href="#ax"/><use transform="matrix(0.05,0,0,0.05,151.75,0)" xlink:href="#ah"/><use transform="matrix(0.05,0,0,0.05,157.7,0)" xlink:href="#S"/><use transform="matrix(0.05,0,0,0.05,167.7,0)" xlink:href="#N"/><use transform="matrix(0.05,0,0,0.05,176.7,0)" xlink:href="#W"/><use transform="matrix(0.05,0,0,0.05,186.7,0)" xlink:href="#X"/><use transform="matrix(0.05,0,0,0.05,201.64999999999998,0)" xlink:href="#X"/><use transform="matrix(0.05,0,0,0.05,216.59999999999997,0)" xlink:href="#S"/><use transform="matrix(0.05,0,0,0.05,226.59999999999997,0)" xlink:href="#Y"/><use transform="matrix(0.05,0,0,0.05,236.59999999999997,0)" xlink:href="#aq"/><use transform="matrix(0.05,0,0,0.05,246.59999999999997,0)" xlink:href="#S"/><use transform="matrix(0.05,0,0,0.05,256.59999999999997,0)" xlink:href="#ah"/><use transform="matrix(0.05,0,0,0.05,261.54999999999995,0)" xlink:href="#ax"/><use transform="matrix(0.05,0,0,0.05,266.54999999999995,0)" xlink:href="#az"/><use transform="matrix(0.05,0,0,0.05,271.54999999999995,0)" xlink:href="#S"/><use transform="matrix(0.05,0,0,0.05,281.54999999999995,0)" xlink:href="#al"/><use transform="matrix(0.05,0,0,0.05,291.54999999999995,0)" xlink:href="#Z"/><use transform="matrix(0.05,0,0,0.05,296.54999999999995,0)" xlink:href="#aa"/><use transform="matrix(0.05,0,0,0.05,306.54999999999995,0)" xlink:href="#ah"/><use transform="matrix(0.05,0,0,0.05,312.49999999999994,0)" xlink:href="#S"/><path fill="#8080ff" d="M-.9 1.25h324.3v1.32H-.9z"/></g></defs></g></svg>